<svg width="571" height="253" viewBox="0 0 571 253" fill="none" xmlns="http://www.w3.org/2000/svg">
<rect x="5.32532" y="89.0717" width="263" height="91" transform="rotate(-13.3319 5.32532 89.0717)" fill="#E23636"/>
<path d="M21.3512 95.5509L36.6281 91.9306L54.9921 139.066L55.1867 139.02L50.4454 88.6562L65.7223 85.0359L81.8638 153.149L71.744 155.548L59.5227 103.976L59.3281 104.022L63.765 157.438L54.813 159.56L34.8072 109.833L34.6126 109.879L46.834 161.451L37.4927 163.664L21.3512 95.5509ZM81.9806 81.183L96.4791 77.7472L123.713 143.232L113.01 145.768L107.858 132.704L107.905 132.899L95.7414 135.781L96.9544 149.573L87.0293 151.925L81.9806 81.183ZM104.449 123.955L91.7025 91.417L91.5079 91.4631L94.8158 126.238L104.449 123.955ZM112.765 73.8878L128.625 70.1292C134.139 68.8225 138.469 69.1668 141.614 71.1621C144.743 73.0924 146.938 76.7173 148.199 82.0367L149.19 86.2208C150.866 93.2916 149.591 98.3211 145.367 101.309L145.413 101.504C148.192 101.667 150.385 102.826 151.992 104.98C153.663 107.119 154.976 110.2 155.929 114.222L158.765 126.19C159.226 128.136 159.668 129.71 160.089 130.912C160.496 132.049 161.097 133.14 161.893 134.184L150.994 136.767C150.344 135.756 149.838 134.78 149.478 133.838C149.118 132.895 148.638 131.159 148.038 128.629L145.087 116.174C144.349 113.06 143.315 111.01 141.985 110.024C140.72 109.022 138.855 108.813 136.39 109.397L132.692 110.273L139.61 139.465L128.906 142.001L112.765 73.8878ZM134.278 99.6205C136.419 99.1132 137.878 98.1851 138.654 96.8364C139.496 95.4723 139.609 93.4928 138.994 90.898L137.749 85.6435C137.165 83.1785 136.288 81.5021 135.118 80.6146C134.014 79.7116 132.521 79.4831 130.64 79.9289L125.774 81.0818L130.386 100.543L134.278 99.6205ZM148.808 65.3464L159.609 62.7868L179.136 113.963L179.331 113.917L173.815 59.4202L183.643 57.0912L189.47 127.649L175.264 131.016L148.808 65.3464ZM188.784 55.8728L217.976 48.9551L220.282 58.6856L201.794 63.0668L206.06 81.0683L220.753 77.5863L223.059 87.3168L208.366 90.7988L213.323 111.719L231.811 107.338L234.117 117.069L204.926 123.986L188.784 55.8728ZM224.133 47.4959L234.837 44.9594L248.673 103.342L266.285 99.1687L268.591 108.899L240.275 115.609L224.133 47.4959Z" fill="white"/>
<rect x="46.6984" y="163.192" width="407.077" height="87.7433" transform="rotate(-13.3319 46.6984 163.192)" fill="#E23636"/>
<path d="M93.4277 232.015C88.3029 233.23 84.0324 232.7 80.6161 230.427C77.2646 228.138 74.9586 224.334 73.6981 219.014L65.0278 182.427C63.7672 177.108 64.1209 172.674 66.0888 169.124C68.1216 165.56 71.7003 163.17 76.825 161.955C81.9498 160.741 86.1879 161.278 89.5393 163.567C92.9556 165.841 95.2941 169.637 96.5546 174.956L98.261 182.157L88.1413 184.555L86.2735 176.673C85.2743 172.457 82.9907 170.771 79.4229 171.617C75.855 172.462 74.5707 174.993 75.5699 179.21L84.5861 217.256C85.5699 221.408 87.8458 223.061 91.4136 222.215C94.9815 221.37 96.2735 218.871 95.2896 214.72L92.8223 204.308L102.942 201.91L105.225 211.543C106.485 216.862 106.099 221.304 104.067 224.869C102.099 228.419 98.5524 230.801 93.4277 232.015ZM99.2229 157.675L109.926 155.139L116.498 182.871L127.98 180.15L121.408 152.418L132.112 149.881L148.253 217.995L137.55 220.531L130.286 189.88L118.804 192.601L126.068 223.252L115.364 225.789L99.2229 157.675ZM148.354 146.032L162.853 142.596L190.087 208.081L179.383 210.618L174.232 197.553L174.278 197.748L162.115 200.63L163.328 214.422L153.403 216.775L148.354 146.032ZM170.823 188.804L158.076 156.266L157.882 156.312L161.189 191.087L170.823 188.804ZM179.139 138.737L194.999 134.978C200.513 133.672 204.843 134.016 207.987 136.011C211.117 137.942 213.312 141.567 214.572 146.886L215.564 151.07C217.24 158.141 215.965 163.17 211.74 166.158L211.786 166.353C214.566 166.516 216.759 167.675 218.365 169.83C220.037 171.968 221.349 175.049 222.302 179.071L225.139 191.039C225.6 192.985 226.041 194.559 226.463 195.761C226.87 196.898 227.471 197.989 228.266 199.034L217.368 201.616C216.718 200.606 216.212 199.629 215.852 198.687C215.492 197.745 215.012 196.008 214.412 193.479L211.46 181.023C210.723 177.91 209.689 175.86 208.359 174.873C207.093 173.871 205.228 173.662 202.763 174.246L199.066 175.123L205.984 204.314L195.28 206.851L179.139 138.737ZM200.652 164.47C202.793 163.962 204.251 163.034 205.028 161.686C205.869 160.321 205.983 158.342 205.368 155.747L204.123 150.493C203.538 148.028 202.662 146.351 201.492 145.464C200.387 144.561 198.894 144.332 197.013 144.778L192.148 145.931L196.76 165.392L200.652 164.47ZM226.655 127.477L241.153 124.041L268.387 189.526L257.684 192.062L252.532 178.998L252.578 179.193L240.415 182.075L241.628 195.867L231.703 198.219L226.655 127.477ZM249.123 170.248L236.376 137.711L236.182 137.757L239.49 172.531L249.123 170.248ZM288.703 185.739C283.578 186.954 279.308 186.424 275.891 184.15C272.54 181.862 270.234 178.058 268.973 172.738L260.303 136.151C259.043 130.832 259.396 126.398 261.364 122.848C263.397 119.284 266.976 116.894 272.1 115.679C277.225 114.465 281.463 115.002 284.815 117.291C288.231 119.565 290.569 123.361 291.83 128.68L293.536 135.881L283.417 138.279L281.549 130.397C280.55 126.181 278.266 124.495 274.698 125.341C271.13 126.186 269.846 128.717 270.845 132.934L279.861 170.98C280.845 175.132 283.121 176.785 286.689 175.939C290.257 175.094 291.549 172.595 290.565 168.444L288.098 158.032L298.217 155.634L300.5 165.267C301.761 170.586 301.375 175.028 299.342 178.593C297.374 182.143 293.828 184.525 288.703 185.739ZM305.172 119.147L293.982 121.799L291.676 112.068L324.76 104.228L327.066 113.958L315.876 116.61L329.711 174.993L319.008 177.53L305.172 119.147ZM329.942 103L359.134 96.0821L361.44 105.813L342.952 110.194L347.218 128.195L361.911 124.713L364.217 134.444L349.524 137.926L354.481 158.846L372.969 154.465L375.275 164.196L346.084 171.113L329.942 103ZM365.291 94.6228L381.152 90.8642C386.666 89.5575 390.996 89.9018 394.14 91.8971C397.27 93.8274 399.465 97.4523 400.725 102.772L401.717 106.956C403.393 114.027 402.118 119.056 397.893 122.044L397.939 122.239C400.719 122.402 402.912 123.561 404.518 125.715C406.19 127.854 407.502 130.935 408.455 134.957L411.292 146.925C411.753 148.871 412.194 150.445 412.616 151.647C413.023 152.784 413.624 153.875 414.419 154.919L403.521 157.502C402.871 156.491 402.365 155.515 402.005 154.573C401.644 153.63 401.165 151.894 400.565 149.364L397.613 136.909C396.876 133.795 395.842 131.745 394.512 130.759C393.246 129.757 391.381 129.548 388.916 130.132L385.219 131.008L392.136 160.2L381.433 162.736L365.291 94.6228ZM386.805 120.355C388.946 119.848 390.404 118.92 391.181 117.571C392.022 116.207 392.136 114.228 391.521 111.633L390.276 106.379C389.691 103.913 388.815 102.237 387.645 101.35C386.54 100.447 385.047 100.218 383.166 100.664L378.301 101.817L382.913 121.278L386.805 120.355ZM434.823 151.112C429.634 152.342 425.363 151.812 422.012 149.523C418.645 147.169 416.308 143.236 415.001 137.722L414.079 133.829L424.199 131.431L425.306 136.102C426.351 140.513 428.722 142.281 432.42 141.404C434.236 140.974 435.476 140.132 436.138 138.879C436.85 137.546 436.921 135.679 436.352 133.279C435.676 130.424 434.435 128.081 432.631 126.247C430.81 124.349 427.788 122.291 423.562 120.072C418.229 117.225 414.317 114.452 411.828 111.754C409.323 108.99 407.602 105.63 406.664 101.673C405.388 96.2884 405.767 91.8139 407.799 88.2491C409.817 84.6194 413.42 82.1897 418.61 80.9599C423.735 79.7454 427.948 80.3227 431.25 82.6918C434.601 84.9807 436.93 88.8821 438.237 94.3961L438.906 97.2179L428.786 99.6161L427.956 96.1131C427.402 93.7778 426.549 92.1988 425.395 91.3761C424.225 90.4885 422.765 90.2522 421.013 90.6673C417.445 91.5128 416.176 94.1087 417.206 98.455C417.79 100.92 418.985 103.069 420.79 104.902C422.659 106.72 425.707 108.739 429.932 110.957C435.331 113.789 439.25 116.594 441.69 119.373C444.129 122.152 445.857 125.682 446.871 129.964C448.193 135.542 447.813 140.154 445.731 143.799C443.714 147.429 440.078 149.867 434.823 151.112Z" fill="white"/>
</svg>
